<svg t="1610793285406" class="icon" viewBox="0 0 1024 1024" version="1.1" xmlns="http://www.w3.org/2000/svg" p-id="29502" width="200" height="200"><path d="M864 928H160c-35.2 0-64-28.8-64-64V160c0-35.2 28.8-64 64-64h704c35.2 0 64 28.8 64 64v704c0 35.2-28.8 64-64 64z" fill="#FFFFFF" p-id="29503"></path><path d="M864 960H160c-52.9 0-96-43.1-96-96V160c0-52.9 43.1-96 96-96h704c52.9 0 96 43.1 96 96v704c0 52.9-43.1 96-96 96zM160 128c-17.6 0-32 14.4-32 32v704c0 17.6 14.4 32 32 32h704c17.6 0 32-14.4 32-32V160c0-17.6-14.4-32-32-32H160z" fill="#666666" p-id="29504"></path><path d="M738 308.4L422.3 624.1 286 487.8l-45.3 45.3L377 669.4l-1 1 45.3 45.2 362-362z" fill="#666666" p-id="29505"></path></svg>