<svg t="1610720457329" class="icon" viewBox="0 0 1024 1024" version="1.1" xmlns="http://www.w3.org/2000/svg" p-id="15880" width="200" height="200"><path d="M838.101333 404.821333c0 2.901333-22.741333 290.56-35.712 411.562667-8.106667 74.282667-56.021333 119.338667-127.872 120.618667-55.168 1.237333-109.226667 1.664-162.346666 1.664-56.448 0-111.616-0.426667-165.205334-1.664-69.418667-1.664-117.333333-47.616-125.056-120.618667-13.354667-121.472-35.712-408.661333-36.096-411.562667a33.877333 33.877333 0 0 1 8.106667-23.808 30.293333 30.293333 0 0 1 22.357333-9.984h591.786667c8.533333 0 16.213333 3.754667 22.314667 9.984 5.717333 6.741333 8.533333 15.061333 7.722666 23.808z" fill="#200E32" opacity=".4" p-id="15881"></path><path d="M896 255.018667a30.805333 30.805333 0 0 0-30.421333-31.274667h-124.416a54.656 54.656 0 0 1-52.906667-43.392l-6.997333-31.146667C671.488 111.701333 637.866667 85.333333 600.106667 85.333333H423.936c-38.186667 0-71.466667 26.325333-81.621333 65.962667l-6.485334 29.098667A54.741333 54.741333 0 0 1 282.88 223.744H158.464A30.805333 30.805333 0 0 0 128 255.018667v16.213333c0 17.066667 13.824 31.274667 30.464 31.274667h707.114667A31.104 31.104 0 0 0 896 271.232v-16.213333z" fill="#200E32" p-id="15882"></path></svg>