<svg t="1614484227226" class="icon" viewBox="0 0 1024 1024" version="1.1" xmlns="http://www.w3.org/2000/svg" p-id="3706" width="200" height="200"><path d="M859.68 825.92h-42V156.08a13.65 13.65 0 0 0-13.63-13.67H255.49a48.35 48.35 0 0 0-48.3 48.29v628.85h-42V190.7a90.4 90.4 0 0 1 90.3-90.29h548.56A55.69 55.69 0 0 1 859.68 156z" fill="#1A051D" p-id="3707"></path><path d="M803.91 926.78H272.56a107.27 107.27 0 1 1 0-214.55h587v158.92a55.69 55.69 0 0 1-55.65 55.63zM272.56 754.23a65.27 65.27 0 1 0 0 130.55h531.35a13.64 13.64 0 0 0 13.62-13.62V754.23z" fill="#1A051D" p-id="3708"></path><path d="M532.13 547.88h-42v-76.62a21 21 0 0 1 18.08-20.8 93.62 93.62 0 0 0-26-185.42 94 94 0 0 0-80.61 92.74h-42a135.62 135.62 0 0 1 116.73-134.33c74.06-10.4 142.76 41.39 153.16 115.45a135.67 135.67 0 0 1-97.37 149.38z" fill="#1A051D" p-id="3709"></path><path d="M489.74 577.18h42v79.28h-42z" fill="#1A051D" p-id="3710"></path></svg>