<svg t="1611061471594" class="icon" viewBox="0 0 1024 1024" version="1.1" xmlns="http://www.w3.org/2000/svg" p-id="10136" width="200" height="200"><path d="M512 0c282.7776 0 512 229.2224 512 512s-229.2224 512-512 512S0 794.7776 0 512 229.2224 0 512 0z" fill="#FFC237" p-id="10137"></path><path d="M512 179.2a72.3968 72.3968 0 0 1 72.2944 76.6464l-18.0736 307.456a54.272 54.272 0 0 1-108.4416 0l-18.0736-307.456A72.3968 72.3968 0 0 1 512 179.2zM512 844.8a76.8 76.8 0 1 0 0-153.6 76.8 76.8 0 0 0 0 153.6z" fill="#FFFFFF" p-id="10138"></path></svg>