<svg t="1611061501046" class="icon" viewBox="0 0 1024 1024" version="1.1" xmlns="http://www.w3.org/2000/svg" p-id="10975" width="200" height="200"><path d="M512 512m-512 0a512 512 0 1 0 1024 0 512 512 0 1 0-1024 0Z" fill="#F25E5E" p-id="10976"></path><path d="M573.343244 511.91937l172.419024-175.434583c15.876031-16.150173 15.876031-42.322646 0-58.472818a40.137575 40.137575 0 0 0-57.464945 0L515.878299 453.446551 343.459276 278.020031a40.137575 40.137575 0 0 0-57.464945 0c-15.876031 16.150173-15.876031 42.314583 0 58.472819L458.413354 511.91937 285.994331 687.353953c-15.876031 16.150173-15.876031 42.314583 0 58.472819a40.137575 40.137575 0 0 0 57.473008 0l172.419023-175.434583L688.305386 745.826772a40.153701 40.153701 0 0 0 57.473008 0c15.876031-16.150173 15.876031-42.314583 0-58.472819L573.343244 511.91937z" fill="#FFFFFF" p-id="10977"></path></svg>