<svg t="1611061436736" class="icon" viewBox="0 0 1024 1024" version="1.1" xmlns="http://www.w3.org/2000/svg" p-id="9315" width="200" height="200"><path d="M512 0C230.4 0 0 230.4 0 512s230.4 512 512 512 512-230.4 512-512S793.6 0 512 0z" fill="#D9F7BE" p-id="9316"></path><path d="M814.933333 307.2c-17.066667-17.066667-42.666667-17.066667-59.733333 0l-311.466667 315.733333-136.533333-140.8c-17.066667-17.066667-42.666667-17.066667-59.733333 0-17.066667 17.066667-17.066667 42.666667 0 59.733334l170.666666 174.933333c4.266667 4.266667 4.266667 4.266667 8.533334 4.266667l4.266666 4.266666c4.266667 4.266667 12.8 4.266667 17.066667 4.266667 4.266667 0 12.8 0 17.066667-4.266667 0 0 4.266667 0 4.266666-4.266666 4.266667 0 8.533333-4.266667 8.533334-4.266667l341.333333-345.6c12.8-21.333333 12.8-46.933333-4.266667-64z" fill="#52C41A" p-id="9317"></path></svg>